<mxfile host="Electron" modified="2024-05-01T02:37:06.794Z" agent="Mozilla/5.0 (Windows NT 10.0; Win64; x64) AppleWebKit/537.36 (KHTML, like Gecko) draw.io/24.2.5 Chrome/120.0.6099.109 Electron/28.1.0 Safari/537.36" etag="gkl3L1NG8zyZptlFVVuY" version="24.2.5" type="device">
  <diagram name="Page-1" id="9TUWox8wP2BCnJdz0Go5">
    <mxGraphModel dx="1139" dy="1035" grid="1" gridSize="10" guides="1" tooltips="1" connect="1" arrows="1" fold="1" page="1" pageScale="1" pageWidth="1169" pageHeight="827" math="0" shadow="0">
      <root>
        <mxCell id="0" />
        <mxCell id="1" parent="0" />
        <mxCell id="Jr5o7yBcgAtu_KKmlK3W-17" style="edgeStyle=orthogonalEdgeStyle;rounded=1;orthogonalLoop=1;jettySize=auto;html=1;exitX=1;exitY=0.5;exitDx=0;exitDy=0;entryX=0;entryY=0.5;entryDx=0;entryDy=0;curved=0;" parent="1" source="Jr5o7yBcgAtu_KKmlK3W-1" target="Jr5o7yBcgAtu_KKmlK3W-2" edge="1">
          <mxGeometry relative="1" as="geometry" />
        </mxCell>
        <mxCell id="Jr5o7yBcgAtu_KKmlK3W-18" style="edgeStyle=orthogonalEdgeStyle;rounded=1;orthogonalLoop=1;jettySize=auto;html=1;exitX=1;exitY=0.5;exitDx=0;exitDy=0;entryX=0;entryY=0.5;entryDx=0;entryDy=0;curved=0;" parent="1" source="Jr5o7yBcgAtu_KKmlK3W-1" target="Jr5o7yBcgAtu_KKmlK3W-3" edge="1">
          <mxGeometry relative="1" as="geometry" />
        </mxCell>
        <mxCell id="Jr5o7yBcgAtu_KKmlK3W-21" style="edgeStyle=orthogonalEdgeStyle;rounded=1;orthogonalLoop=1;jettySize=auto;html=1;entryX=0;entryY=0.5;entryDx=0;entryDy=0;curved=0;" parent="1" source="Jr5o7yBcgAtu_KKmlK3W-1" target="Jr5o7yBcgAtu_KKmlK3W-6" edge="1">
          <mxGeometry relative="1" as="geometry" />
        </mxCell>
        <mxCell id="Jr5o7yBcgAtu_KKmlK3W-1" value="NGINX" style="rounded=0;whiteSpace=wrap;html=1;" parent="1" vertex="1">
          <mxGeometry x="160" y="120" width="120" height="60" as="geometry" />
        </mxCell>
        <mxCell id="Jr5o7yBcgAtu_KKmlK3W-2" value="React" style="rounded=0;whiteSpace=wrap;html=1;" parent="1" vertex="1">
          <mxGeometry x="360" y="40" width="120" height="60" as="geometry" />
        </mxCell>
        <mxCell id="Jr5o7yBcgAtu_KKmlK3W-12" value="" style="edgeStyle=orthogonalEdgeStyle;rounded=1;orthogonalLoop=1;jettySize=auto;html=1;entryX=0;entryY=0.5;entryDx=0;entryDy=0;curved=0;" parent="1" source="Jr5o7yBcgAtu_KKmlK3W-3" target="Jr5o7yBcgAtu_KKmlK3W-6" edge="1">
          <mxGeometry relative="1" as="geometry" />
        </mxCell>
        <mxCell id="Jr5o7yBcgAtu_KKmlK3W-13" style="edgeStyle=orthogonalEdgeStyle;rounded=1;orthogonalLoop=1;jettySize=auto;html=1;exitX=1;exitY=0.5;exitDx=0;exitDy=0;entryX=0;entryY=0.5;entryDx=0;entryDy=0;curved=0;" parent="1" source="Jr5o7yBcgAtu_KKmlK3W-3" target="Jr5o7yBcgAtu_KKmlK3W-10" edge="1">
          <mxGeometry relative="1" as="geometry" />
        </mxCell>
        <mxCell id="Jr5o7yBcgAtu_KKmlK3W-14" style="edgeStyle=orthogonalEdgeStyle;rounded=1;orthogonalLoop=1;jettySize=auto;html=1;exitX=1;exitY=0.5;exitDx=0;exitDy=0;entryX=0;entryY=0.5;entryDx=0;entryDy=0;curved=0;" parent="1" source="Jr5o7yBcgAtu_KKmlK3W-3" target="Jr5o7yBcgAtu_KKmlK3W-7" edge="1">
          <mxGeometry relative="1" as="geometry" />
        </mxCell>
        <mxCell id="Jr5o7yBcgAtu_KKmlK3W-15" style="edgeStyle=orthogonalEdgeStyle;rounded=1;orthogonalLoop=1;jettySize=auto;html=1;exitX=1;exitY=0.5;exitDx=0;exitDy=0;entryX=0;entryY=0.5;entryDx=0;entryDy=0;curved=0;" parent="1" source="Jr5o7yBcgAtu_KKmlK3W-3" target="Jr5o7yBcgAtu_KKmlK3W-5" edge="1">
          <mxGeometry relative="1" as="geometry" />
        </mxCell>
        <mxCell id="Jr5o7yBcgAtu_KKmlK3W-16" style="edgeStyle=orthogonalEdgeStyle;rounded=1;orthogonalLoop=1;jettySize=auto;html=1;exitX=1;exitY=0.5;exitDx=0;exitDy=0;entryX=0;entryY=0.5;entryDx=0;entryDy=0;curved=0;" parent="1" source="Jr5o7yBcgAtu_KKmlK3W-3" target="Jr5o7yBcgAtu_KKmlK3W-8" edge="1">
          <mxGeometry relative="1" as="geometry" />
        </mxCell>
        <mxCell id="Jr5o7yBcgAtu_KKmlK3W-3" value="Node Express" style="rounded=0;whiteSpace=wrap;html=1;" parent="1" vertex="1">
          <mxGeometry x="360" y="200" width="120" height="60" as="geometry" />
        </mxCell>
        <mxCell id="Jr5o7yBcgAtu_KKmlK3W-20" value="" style="edgeStyle=orthogonalEdgeStyle;rounded=1;orthogonalLoop=1;jettySize=auto;html=1;curved=0;" parent="1" source="Jr5o7yBcgAtu_KKmlK3W-4" target="Jr5o7yBcgAtu_KKmlK3W-1" edge="1">
          <mxGeometry relative="1" as="geometry" />
        </mxCell>
        <mxCell id="Jr5o7yBcgAtu_KKmlK3W-4" value="Actor" style="shape=umlActor;verticalLabelPosition=bottom;verticalAlign=top;html=1;outlineConnect=0;" parent="1" vertex="1">
          <mxGeometry x="70" y="120" width="30" height="60" as="geometry" />
        </mxCell>
        <mxCell id="vwneNfHEDLT8lpPZauO1-4" value="" style="edgeStyle=orthogonalEdgeStyle;rounded=0;orthogonalLoop=1;jettySize=auto;html=1;" edge="1" parent="1" source="Jr5o7yBcgAtu_KKmlK3W-5" target="vwneNfHEDLT8lpPZauO1-3">
          <mxGeometry relative="1" as="geometry" />
        </mxCell>
        <mxCell id="Jr5o7yBcgAtu_KKmlK3W-5" value="Stripe Proxy&lt;br&gt;&lt;div&gt;(Node app)&lt;/div&gt;" style="rounded=0;whiteSpace=wrap;html=1;" parent="1" vertex="1">
          <mxGeometry x="560" y="420" width="120" height="60" as="geometry" />
        </mxCell>
        <mxCell id="Jr5o7yBcgAtu_KKmlK3W-11" value="" style="edgeStyle=orthogonalEdgeStyle;rounded=1;orthogonalLoop=1;jettySize=auto;html=1;curved=0;" parent="1" source="Jr5o7yBcgAtu_KKmlK3W-6" target="Jr5o7yBcgAtu_KKmlK3W-9" edge="1">
          <mxGeometry relative="1" as="geometry" />
        </mxCell>
        <mxCell id="Jr5o7yBcgAtu_KKmlK3W-6" value="Keycloak IAM" style="rounded=0;whiteSpace=wrap;html=1;" parent="1" vertex="1">
          <mxGeometry x="560" y="120" width="120" height="60" as="geometry" />
        </mxCell>
        <mxCell id="Jr5o7yBcgAtu_KKmlK3W-7" value="PDF Creator&lt;div&gt;(Node app)&lt;/div&gt;" style="rounded=0;whiteSpace=wrap;html=1;" parent="1" vertex="1">
          <mxGeometry x="560" y="320" width="120" height="60" as="geometry" />
        </mxCell>
        <mxCell id="vwneNfHEDLT8lpPZauO1-5" value="" style="edgeStyle=orthogonalEdgeStyle;rounded=0;orthogonalLoop=1;jettySize=auto;html=1;" edge="1" parent="1" source="Jr5o7yBcgAtu_KKmlK3W-8" target="vwneNfHEDLT8lpPZauO1-2">
          <mxGeometry relative="1" as="geometry" />
        </mxCell>
        <mxCell id="Jr5o7yBcgAtu_KKmlK3W-8" value="ClickSend Proxy&lt;div&gt;(Node app)&lt;/div&gt;" style="rounded=0;whiteSpace=wrap;html=1;" parent="1" vertex="1">
          <mxGeometry x="560" y="520" width="120" height="60" as="geometry" />
        </mxCell>
        <mxCell id="Jr5o7yBcgAtu_KKmlK3W-9" value="PostgreSQL" style="rounded=0;whiteSpace=wrap;html=1;" parent="1" vertex="1">
          <mxGeometry x="760" y="120" width="120" height="60" as="geometry" />
        </mxCell>
        <mxCell id="Jr5o7yBcgAtu_KKmlK3W-10" value="MongoDB" style="rounded=0;whiteSpace=wrap;html=1;" parent="1" vertex="1">
          <mxGeometry x="560" y="220" width="120" height="60" as="geometry" />
        </mxCell>
        <mxCell id="vwneNfHEDLT8lpPZauO1-6" value="" style="edgeStyle=orthogonalEdgeStyle;rounded=0;orthogonalLoop=1;jettySize=auto;html=1;" edge="1" parent="1" source="Jr5o7yBcgAtu_KKmlK3W-22" target="vwneNfHEDLT8lpPZauO1-1">
          <mxGeometry relative="1" as="geometry" />
        </mxCell>
        <mxCell id="Jr5o7yBcgAtu_KKmlK3W-22" value="Email Proxy&lt;div&gt;(Node app)&lt;/div&gt;" style="rounded=0;whiteSpace=wrap;html=1;" parent="1" vertex="1">
          <mxGeometry x="560" y="620" width="120" height="60" as="geometry" />
        </mxCell>
        <mxCell id="Jr5o7yBcgAtu_KKmlK3W-23" style="edgeStyle=orthogonalEdgeStyle;rounded=1;orthogonalLoop=1;jettySize=auto;html=1;exitX=1;exitY=0.5;exitDx=0;exitDy=0;entryX=0;entryY=0.383;entryDx=0;entryDy=0;entryPerimeter=0;curved=0;" parent="1" source="Jr5o7yBcgAtu_KKmlK3W-3" target="Jr5o7yBcgAtu_KKmlK3W-22" edge="1">
          <mxGeometry relative="1" as="geometry" />
        </mxCell>
        <mxCell id="vwneNfHEDLT8lpPZauO1-1" value="Email Relay" style="ellipse;shape=cloud;whiteSpace=wrap;html=1;" vertex="1" parent="1">
          <mxGeometry x="750" y="610" width="120" height="80" as="geometry" />
        </mxCell>
        <mxCell id="vwneNfHEDLT8lpPZauO1-2" value="ClickSend" style="ellipse;shape=cloud;whiteSpace=wrap;html=1;" vertex="1" parent="1">
          <mxGeometry x="750" y="510" width="120" height="80" as="geometry" />
        </mxCell>
        <mxCell id="vwneNfHEDLT8lpPZauO1-3" value="Stripe" style="ellipse;shape=cloud;whiteSpace=wrap;html=1;" vertex="1" parent="1">
          <mxGeometry x="750" y="410" width="120" height="80" as="geometry" />
        </mxCell>
      </root>
    </mxGraphModel>
  </diagram>
</mxfile>
